<svg id="圖層_1" data-name="圖層 1" xmlns="http://www.w3.org/2000/svg" viewBox="0 0 50 50"><defs><style>.cls-1{fill:#f8b62d;}</style></defs><title>down</title><path class="cls-1" d="M23.06,25.32,10.44,12.71a2.23,2.23,0,0,1,0-3.15l2.1-2.1a2.22,2.22,0,0,1,3.14,0l9,9,8.94-8.95a2.23,2.23,0,0,1,3.15,0l2.11,2.09a2.21,2.21,0,0,1,0,3.15L26.22,25.31a2.21,2.21,0,0,1-3.16,0Zm3.16,17.82L38.83,30.52a2.21,2.21,0,0,0,0-3.15l-2.09-2.09a2.23,2.23,0,0,0-3.15,0l-9,8.93-9-8.94a2.22,2.22,0,0,0-3.14,0l-2.11,2.1a2.22,2.22,0,0,0,0,3.14L23.06,43.13A2.23,2.23,0,0,0,26.22,43.14Z"/></svg>