<svg id="Capa_1" data-name="Capa 1" xmlns="http://www.w3.org/2000/svg" viewBox="0 0 54 54"><defs><style>.cls-1{fill:#f5c23b;}.cls-2{fill:#fff;}</style></defs><title>up-arrow</title><path class="cls-1" d="M53,27h0A26,26,0,0,1,27,53h0A26,26,0,0,1,1,27H1A26,26,0,0,1,27,1h0A26,26,0,0,1,53,27Z"/><path class="cls-1" d="M27,54A27,27,0,1,1,54,27,27,27,0,0,1,27,54ZM27,2A25,25,0,1,0,52,27,25,25,0,0,0,27,2Z"/><path class="cls-2" d="M28,17.86,36.74,33a.7.7,0,0,1-.61,1H18.7a.7.7,0,0,1-.61-1l8.72-15.1A.7.7,0,0,1,28,17.86Z"/><path class="cls-2" d="M36.13,35H18.7a1.67,1.67,0,0,1-1.47-.85,1.65,1.65,0,0,1,0-1.69L26,17.35a1.7,1.7,0,0,1,2.93,0L37.6,32.46a1.65,1.65,0,0,1,0,1.69A1.67,1.67,0,0,1,36.13,35ZM19.22,33H35.61L27.42,18.81Z"/></svg>