<?xml version="1.0" encoding="iso-8859-1"?>
<!-- Generator: Adobe Illustrator 19.0.0, SVG Export Plug-In . SVG Version: 6.00 Build 0)  -->
<svg xmlns="http://www.w3.org/2000/svg" xmlns:xlink="http://www.w3.org/1999/xlink" version="1.1" id="Capa_1" x="0px" y="0px" viewBox="0 0 479.999 479.999" style="enable-background:new 0 0 479.999 479.999;" xml:space="preserve" width="512px" height="512px">
<path style="fill:#CDD7DE;" d="M136.411,424.162l-22.425-22.828l-45.27,44.625c-6.286,6.196-6.366,16.311-0.182,22.607  c6.2,6.312,16.346,6.394,22.646,0.182L136.411,424.162z"/>
<g>
	<polygon style="fill:#A3B4C1;" points="86.266,428.658 108.895,451.286 136.411,424.162 113.984,401.334  "/>
	<path style="fill:#A3B4C1;" d="M343.121,424.162l22.425-22.828l45.27,44.625c6.286,6.196,6.366,16.311,0.182,22.607   c-6.2,6.312-16.346,6.394-22.646,0.182L343.121,424.162z"/>
	<rect x="223.766" y="48" style="fill:#A3B4C1;" width="32" height="64"/>
	
		<rect x="76.648" y="108.929" transform="matrix(-0.7071 0.7071 -0.7071 -0.7071 257.8112 175.0692)" style="fill:#A3B4C1;" width="32" height="63.999"/>
	
		<rect x="370.821" y="108.933" transform="matrix(-0.7071 -0.7071 0.7071 -0.7071 560.691 514.1104)" style="fill:#A3B4C1;" width="32" height="63.999"/>
</g>
<g>
	<path style="fill:#CDD7DE;" d="M437.51,89.199c-24.448-24.416-62.112-27.536-89.904-9.344l99.264,99.28   C465.062,151.279,461.958,113.647,437.51,89.199z"/>
	<path style="fill:#CDD7DE;" d="M42.486,89.583c-24.336,24.288-27.504,61.664-9.632,89.44l99.024-99.024   C104.134,62.143,66.806,65.263,42.486,89.583z"/>
	<circle style="fill:#CDD7DE;" cx="239.766" cy="32" r="32"/>
</g>
<path style="fill:#FFFFFF;" d="M239.766,455.999c-92.641,0-168-75.367-168-168s75.359-168,168-168s168,75.367,168,168  S332.407,455.999,239.766,455.999z"/>
<path style="fill:#D64231;" d="M239.766,143.999c79.402,0,144,64.598,144,144s-64.598,144-144,144s-144-64.598-144-144  S160.363,143.999,239.766,143.999 M239.766,95.999c-106.039,0-192,85.962-192,192s85.961,192,192,192s192-85.962,192-192  S345.805,95.999,239.766,95.999z"/>
<path style="fill:#F7FBFE;" d="M318.868,168.217c15.275,22.858,24.218,50.288,24.218,79.782c0,79.4-64.6,144-144,144  c-29.494,0-56.926-8.943-79.782-24.218c25.846,38.676,69.875,64.218,119.782,64.218c79.4,0,144-64.6,144-144  C383.087,238.093,357.543,194.064,318.868,168.217z"/>
<g>
	<rect x="231.086" y="376" style="fill:#231F20;" width="16" height="16"/>
	
		<rect x="163.162" y="212.103" transform="matrix(-0.7071 0.7071 -0.7071 -0.7071 447.8269 254.7091)" style="fill:#231F20;" width="16" height="16"/>
	
		<rect x="298.986" y="347.919" transform="matrix(-0.7071 0.7071 -0.7071 -0.7071 775.7303 390.5202)" style="fill:#231F20;" width="16" height="16"/>
	<rect x="135.086" y="280.024" style="fill:#231F20;" width="16" height="16"/>
	<rect x="327.086" y="280.024" style="fill:#231F20;" width="16" height="16"/>
	
		<rect x="163.281" y="347.88" transform="matrix(0.7071 0.7071 -0.7071 0.7071 301.812 -16.879)" style="fill:#231F20;" width="16" height="16"/>
	
		<rect x="298.993" y="212.177" transform="matrix(0.7071 0.7071 -0.7071 0.7071 245.6043 -152.5883)" style="fill:#231F20;" width="16" height="16"/>
</g>
<path style="fill:#5783C3;" d="M223.766,191.999v89.372L184.838,320.3l22.627,22.627c31.142-31.142,28.328-28.328,48.301-48.301  c0-24.661,0,51.758,0-102.627L223.766,191.999L223.766,191.999z"/>
<g>
	<circle style="fill:#231F20;" cx="143.774" cy="286.992" r="12"/>
	<circle style="fill:#231F20;" cx="336.318" cy="286.992" r="12"/>
	<ellipse style="fill:#231F20;" cx="171.979" cy="355.071" rx="12" ry="12"/>
	<ellipse style="fill:#231F20;" cx="308.156" cy="218.896" rx="12" ry="12"/>
	<circle style="fill:#231F20;" cx="240.046" cy="383.28" r="12"/>
	<ellipse style="fill:#231F20;" cx="308.115" cy="355.055" rx="12" ry="12"/>
	<ellipse style="fill:#231F20;" cx="171.94" cy="218.912" rx="12" ry="12"/>
</g>
<g>
</g>
<g>
</g>
<g>
</g>
<g>
</g>
<g>
</g>
<g>
</g>
<g>
</g>
<g>
</g>
<g>
</g>
<g>
</g>
<g>
</g>
<g>
</g>
<g>
</g>
<g>
</g>
<g>
</g>
</svg>
